<svg width="283" height="283" viewBox="0 0 283 283" version="1.1" xmlns="http://www.w3.org/2000/svg" xmlns:xlink="http://www.w3.org/1999/xlink" xmlns:figma="http://www.figma.com/figma/ns">
<title>Vector</title>
<desc>Created using Figma</desc>
<g id="Canvas" transform="translate(20462 -93)" figma:type="canvas">
<g id="Vector" figma:type="vector">
<use xlink:href="#path0_fill" transform="matrix(-0.965926 -0.258819 0.258819 -0.965926 -20239.3 375.89)" fill="#99EAFF"/>
</g>
</g>
<defs>
<path id="path0_fill" d="M 158.429 187.284L 185.106 199.806C 187.828 200.895 191.095 200.35 192.728 198.717C 194.361 197.084 196.539 195.45 198.172 193.273C 200.35 191.095 200.895 187.828 199.261 185.65L 186.739 158.973C 191.095 151.896 194.361 143.729 196.539 135.563L 224.849 125.763C 227.572 124.674 229.205 122.497 229.749 119.23C 229.749 118.141 229.749 116.508 229.749 115.419C 229.749 114.33 229.749 112.697 229.749 111.608C 229.749 108.886 227.572 106.164 224.849 105.075L 197.084 94.7308C 194.906 86.5643 191.639 78.3979 187.284 71.3203L 199.806 44.6432C 200.895 41.9211 200.35 38.6545 198.717 37.0212C 197.084 35.3879 195.45 33.2102 193.272 31.5769C 191.095 29.3992 187.828 28.8548 185.65 30.4881L 158.973 43.0099C 151.896 38.6545 143.729 35.3879 135.563 33.2102L 125.763 4.89987C 124.674 2.17772 122.497 0.54443 119.23 0C 118.141 0 116.508 0 115.419 0C 114.33 0 112.697 0 111.608 0C 108.886 0 106.164 2.17772 105.075 4.89987L 95.2752 33.2102C 87.1087 35.3879 78.9423 38.6545 71.8647 43.0099L 45.1876 30.4881C 42.4655 29.3992 39.1989 29.9436 37.5656 31.5769C 35.9323 33.2102 33.7546 34.8435 32.1213 37.0212C 29.9436 39.1989 29.3991 42.4655 31.0324 44.6432L 43.5543 71.3203C 39.1989 78.3979 35.9323 86.5643 33.7546 94.7308L 5.44429 104.53C 2.17772 105.619 0.544429 108.341 0 111.064C 0 112.152 0 113.786 0 114.875C 0 115.964 0 117.597 0 118.686C 0 121.408 2.17772 124.13 4.89986 125.219L 33.2101 135.019C 35.3879 143.185 38.6544 151.351 43.0099 158.429L 29.9436 185.65C 28.8547 188.373 29.3991 191.639 31.0324 193.273C 32.6657 194.906 34.299 197.084 36.4767 198.717C 38.6544 200.895 41.921 201.439 44.0987 199.806L 70.7758 187.284C 77.8534 191.639 86.0199 194.906 94.1863 197.084L 103.986 225.394C 105.075 228.116 107.253 229.749 110.519 230.294C 111.608 230.294 113.241 230.294 114.33 230.294C 115.419 230.294 117.052 230.294 118.141 230.294C 120.863 230.294 123.586 228.116 124.674 225.394L 134.474 197.084C 143.729 194.906 151.351 191.639 158.429 187.284ZM 80.0311 115.964C 79.4867 95.8196 95.8196 79.4867 115.963 80.0312C 133.93 80.5756 149.174 95.2752 149.718 113.786C 150.263 133.93 133.93 150.263 113.786 149.718C 95.8196 149.174 81.12 133.93 80.0311 115.964Z"/>
</defs>
</svg>
